<svg width="30" height="30" viewBox="0 0 30 30" fill="none" xmlns="http://www.w3.org/2000/svg">
<g id="Post add" clip-path="url(#clip0_105_168)">
<g id="Group">
<g id="Group_2">
<path id="Vector" d="M21.25 24.025H6.25V8.75H15V6.25H6.25C4.875 6.25 3.75 7.375 3.75 8.75V23.75C3.75 25.125 4.875 26.25 6.25 26.25H21.25C22.625 26.25 23.75 25.125 23.75 23.75V15H21.25V24.025Z" fill="black"/>
<path id="Vector_2" d="M23.75 2.5H21.25V6.25H17.5C17.5125 6.2625 17.5 8.75 17.5 8.75H21.25V12.4875C21.2625 12.5 23.75 12.4875 23.75 12.4875V8.75H27.5V6.25H23.75V2.5Z" fill="black"/>
<path id="Vector_3" d="M18.75 11.25H8.75V13.75H18.75V11.25Z" fill="black"/>
<path id="Vector_4" d="M8.75 15V17.5H18.75V15H15H8.75Z" fill="black"/>
<path id="Vector_5" d="M18.75 18.75H8.75V21.25H18.75V18.75Z" fill="black"/>
</g>
</g>
</g>
<defs>
<clipPath id="clip0_105_168">
<rect width="30" height="30" fill="white"/>
</clipPath>
</defs>
</svg>
